# xmcd CD database file
#
# Track frame offsets:
#	150
#	16717
#	37448
#	53969
#
# Disc length: 994 seconds
#
# Revision: 0
# Processed by: cddbd v1.5PL3 Copyright (c) Steve Scherf et al.
# Submitted via: CDex 1.40Release
#
DISCID=2f03e004
DTITLE=JAM Project - GO! GO! レスキュー
DYEAR=2003
DGENRE=Anime
TTITLE0=GO! GO! レスキュー
TTITLE1=マーチ オブ レスキューヒーロー
TTITLE2=GO! GO! レスキュー (Off Vocal Version)
TTITLE3=マーチ オブ レスキューヒーロー (Off Vocal Version)
EXTD=YEAR: 2003
EXTT0=
EXTT1=
EXTT2=
EXTT3=
PLAYORDER=
